HIERARCHY
ROOT root
{
	OFFSET	0	13.1	24.9
	CHANNELS 6  Xposition Yposition Zposition Xrotation Yrotation Zrotation
	JOINT spine_1
	{
		OFFSET	0	9.99999	0
		CHANNELS 3  Xrotation Yrotation Zrotation
		JOINT spine_2
		{
			OFFSET	0	112	-10
			CHANNELS 3  Xrotation Yrotation Zrotation
			JOINT spine_3
			{
				OFFSET	0	206.5	19.3
				CHANNELS 3  Xrotation Yrotation Zrotation
				JOINT spine_4
				{
					OFFSET	0	110.4	14.6
					CHANNELS 3  Xrotation Yrotation Zrotation
					JOINT neck_1
					{
						OFFSET	0	71.8	-50.3
						CHANNELS 3  Xrotation Yrotation Zrotation
						JOINT neck_2
						{
							OFFSET	0	86.2	-25.8
							CHANNELS 3  Xrotation Yrotation Zrotation
							JOINT head_ee
							{
								OFFSET	0	179.8	-8.7
								CHANNELS 3  Xrotation Yrotation Zrotation
								End Site
								{
									OFFSET	1	0	0
								}
							}
						}
					}
					JOINT left_clavicle
					{
						OFFSET	-43.2	22.4	-70.8
						CHANNELS 3  Xrotation Yrotation Zrotation
						JOINT left_shoulder
						{
							OFFSET	-93.9	-5.79999	48.7
							CHANNELS 3  Xrotation Yrotation Zrotation
							JOINT left_elbow
							{
								OFFSET	-291.4	-30.8	15.2
								CHANNELS 3  Xrotation Yrotation Zrotation
								JOINT left_lowarm_twist
								{
									OFFSET	-110.7	-3.89999	13.6
									CHANNELS 3  Xrotation Yrotation Zrotation
									JOINT left_hand
									{
										OFFSET	-110.7	-3.89999	13.6
										CHANNELS 3  Xrotation Yrotation Zrotation
										JOINT left_ee
										{
											OFFSET	-80.8	-5.10001	12.1
											CHANNELS 3  Xrotation Yrotation Zrotation
											End Site
											{
												OFFSET	1	0	0
											}
										}
									}
								}
							}
						}
					}
					JOINT right_clavicle
					{
						OFFSET	43.2	22.4	-70.8
						CHANNELS 3  Xrotation Yrotation Zrotation
						JOINT right_shoulder
						{
							OFFSET	93.9	-5.79999	48.7
							CHANNELS 3  Xrotation Yrotation Zrotation
							JOINT right_elbow
							{
								OFFSET	291.4	-30.8	15.2
								CHANNELS 3  Xrotation Yrotation Zrotation
								JOINT right_lowarm_twist
								{
									OFFSET	110.7	-3.89999	13.6
									CHANNELS 3  Xrotation Yrotation Zrotation
									JOINT right_hand
									{
										OFFSET	110.7	-3.89999	13.6
										CHANNELS 3  Xrotation Yrotation Zrotation
										JOINT right_ee
										{
											OFFSET	80.8	-5.10001	12.1
											CHANNELS 3  Xrotation Yrotation Zrotation
											End Site
											{
												OFFSET	1	0	0
											}
										}
									}
								}
							}
						}
					}
				}
			}
		}
	}
	JOINT left_hip
	{
		OFFSET	-82.8	-127.5	0.300001
		CHANNELS 3  Xrotation Yrotation Zrotation
		JOINT left_knee
		{
			OFFSET	-28.2	-396.7	2.2
			CHANNELS 3  Xrotation Yrotation Zrotation
			JOINT left_ankle
			{
				OFFSET	-11.7	-411.3	35.4
				CHANNELS 3  Xrotation Yrotation Zrotation
				JOINT left_toes
				{
					OFFSET	0	-60	-88.6
					CHANNELS 3  Xrotation Yrotation Zrotation
					JOINT left_foot_ee
					{
						OFFSET	-22.5	-16.5	-42.2
						CHANNELS 3  Xrotation Yrotation Zrotation
						End Site
						{
							OFFSET	1	0	0
						}
					}
				}
			}
		}
	}
	JOINT right_hip
	{
		OFFSET	82.8	-127.5	0.300001
		CHANNELS 3  Xrotation Yrotation Zrotation
		JOINT right_knee
		{
			OFFSET	28.2	-396.7	2.2
			CHANNELS 3  Xrotation Yrotation Zrotation
			JOINT right_ankle
			{
				OFFSET	11.7	-411.3	35.4
				CHANNELS 3  Xrotation Yrotation Zrotation
				JOINT right_toes
				{
					OFFSET	0	-60	-88.6
					CHANNELS 3  Xrotation Yrotation Zrotation
					JOINT right_foot_ee
					{
						OFFSET	22.5	-16.5	-42.2
						CHANNELS 3  Xrotation Yrotation Zrotation
						End Site
						{
							OFFSET	1	0	0
						}
					}
				}
			}
		}
	}
}
MOTION
Frames: 15
Frame Time: 0.02
1160.73369508 726.391 -1754.05152866 -21.7683243376 35.2550160171 10.9501238001 8.40226 0.317965 0.900859 8.40267 0.259999 0.919264 8.40603 0.19973 0.934212 8.40498 0.344759 0.89095 -20.1655 -2.96123 -1.03945 -20.2008 -5.18483 -2.20969 -0.0 0.0 -0.0 2.26911 23.4631 5.82486 -25.7066 -18.6411 64.8107 0.502514 -13.9788 0.0616069 4.2058 0.129082 -0.521584 -0.0248924 -22.4641 -9.70884 -0.0 0.0 -0.0 8.72694 -6.87596 -16.7315 -28.031 31.5959 -57.2358 1.01579 26.7105 -0.241163 -2.20477 0.0828827 -0.269322 1.2262 2.59514 -7.15757 0.0 0.0 0.0 53.6487 -10.3221 4.65701 -76.6393 -4.23744 10.0762 21.5858 3.64459 -2.93028 33.8087 -0.0 -0.0 -0.0 0.0 -0.0 29.4969 -0.462415 -1.18307 -20.9223 -0.283535 -3.18036 36.4805 -8.94241 4.54858 18.6874 -0.0 -0.0 0.0 0.0 0.0 
1164.89942327 726.391 -1757.16013666 -21.5494797796 34.4638768036 10.5672474775 8.40226 0.317965 0.900859 8.40267 0.259999 0.919264 8.40603 0.19973 0.934212 8.40498 0.344759 0.89095 -20.1655 -2.96123 -1.03945 -20.2008 -5.18483 -2.20969 -0.0 0.0 -0.0 2.26911 23.4631 5.82486 -25.7066 -18.6411 64.8107 0.502514 -13.9788 0.0616069 4.2058 0.129082 -0.521584 -0.0248924 -22.4641 -9.70884 -0.0 0.0 -0.0 8.72694 -6.87596 -16.7315 -28.031 31.5959 -57.2358 1.01579 26.7105 -0.241163 -2.20477 0.0828827 -0.269322 1.2262 2.59514 -7.15757 0.0 0.0 0.0 53.6487 -10.3221 4.65701 -76.6393 -4.23744 10.0762 21.5858 3.64459 -2.93028 33.8087 -0.0 -0.0 -0.0 0.0 -0.0 29.4969 -0.462415 -1.18307 -20.9223 -0.283535 -3.18036 36.4805 -8.94241 4.54858 18.6874 -0.0 -0.0 0.0 0.0 0.0 
1163.91429258 726.391 -1756.43367214 -21.6002481947 34.6502884564 10.6567501624 8.40226 0.317965 0.900859 8.40267 0.259999 0.919264 8.40603 0.19973 0.934212 8.40498 0.344759 0.89095 -20.1655 -2.96123 -1.03945 -20.2008 -5.18483 -2.20969 -0.0 0.0 -0.0 2.26911 23.4631 5.82486 -25.7066 -18.6411 64.8107 0.502514 -13.9788 0.0616069 4.2058 0.129082 -0.521584 -0.0248924 -22.4641 -9.70884 -0.0 0.0 -0.0 8.72694 -6.87596 -16.7315 -28.031 31.5959 -57.2358 1.01579 26.7105 -0.241163 -2.20477 0.0828827 -0.269322 1.2262 2.59514 -7.15757 0.0 0.0 0.0 53.6487 -10.3221 4.65701 -76.6393 -4.23744 10.0762 21.5858 3.64459 -2.93028 33.8087 -0.0 -0.0 -0.0 0.0 -0.0 29.4969 -0.462415 -1.18307 -20.9223 -0.283535 -3.18036 36.4805 -8.94241 4.54858 18.6874 -0.0 -0.0 0.0 0.0 0.0 
1141.67249585 729.058 -1758.52054021 -26.4000697551 37.7381962885 14.9600694111 8.6562 0.301787 0.667833 8.65641 0.25868 0.685682 8.65906 0.216677 0.70009 8.65852 0.324522 0.657086 -18.7858 -5.41572 0.175661 -18.9299 -10.5203 -1.99706 -0.0 0.0 -0.0 2.16511 21.3674 5.58218 -23.2841 -17.4028 67.8905 0.312371 -8.79633 0.0240256 0.839724 0.0288293 -0.103371 0.351016 -20.2504 -6.27347 -0.0 0.0 -0.0 9.16393 -5.2928 -17.6739 -24.4074 30.8734 -54.813 1.06241 27.7565 -0.262499 -0.0494145 0.00174357 -0.00606994 2.13548 13.4652 -8.67118 0.0 0.0 0.0 65.5997 -13.5841 7.08529 -67.4745 -3.0588 9.29457 8.3285 14.7425 -1.1988 29.681 -0.0 -0.0 -0.0 0.0 -0.0 27.1607 -12.4479 -0.722827 -8.1296 -0.248373 -1.22188 32.8711 -6.22135 4.18724 8.69933 -0.0 -0.0 0.0 0.0 0.0 
1126.8766104 729.243 -1762.76558235 -29.8486015487 40.7145159924 18.2922865693 8.76352 0.256707 0.806879 8.76386 0.204845 0.821578 8.7661 0.156263 0.832185 8.76525 0.285726 0.797066 -18.4248 -6.26366 0.578838 -18.6182 -12.3635 -1.92828 -0.0 0.0 -0.0 2.13638 20.7323 5.50876 -23.0781 -16.9189 68.6096 0.232024 -6.55685 0.0132908 -0.165906 -0.00587493 0.0203735 0.497175 -19.455 -4.95958 -0.0 0.0 -0.0 8.86846 -4.73742 -17.1331 -23.0061 30.5399 -53.8744 1.07663 28.0717 -0.269159 0.599993 -0.0207535 0.0738177 2.451 17.2415 -9.06738 0.0 0.0 0.0 68.9437 -14.5331 7.28991 -64.6523 -2.72274 9.01728 4.35543 18.0979 -0.639669 28.2415 -0.0 -0.0 -0.0 0.0 -0.0 26.5257 -15.8959 -0.638223 -4.59634 -0.161768 -0.686664 32.7246 -5.31867 4.17242 5.74476 -0.0 -0.0 0.0 0.0 0.0 
1078.75526089 720.322 -1791.02088934 -37.0047207322 48.6382995707 29.3136678143 9.36349 -0.48892 0.770628 9.36366 -0.536965 0.737957 9.35655 -0.57212 0.71105 9.35613 -0.452647 0.792477 -16.9634 -10.166 -4.16412 -17.238 -17.2015 -7.65952 -0.0 0.0 -0.0 1.18744 19.7192 4.05271 -26.7726 -16.0623 68.2916 0.199863 -5.65434 0.00986995 -1.75336 -0.0650693 0.214439 0.967113 -15.3536 -0.0395696 -0.0 0.0 -0.0 6.64295 -10.3079 -12.733 -18.6513 32.1679 -55.8024 1.27807 32.3372 -0.370569 -1.91654 0.0714586 -0.234294 2.17892 25.8647 -3.14406 0.0 0.0 0.0 70.8426 -14.1243 7.47961 -53.0547 -1.49848 7.71729 -5.21964 18.6713 0.7844 22.38 -0.0 -0.0 -0.0 0.0 -0.0 26.3747 -21.3363 -1.96516 -12.9824 -0.313232 -1.96345 41.4374 -1.59182 4.98757 4.15113 -0.0 -0.0 0.0 0.0 0.0 
1060.1125059 717.607 -1801.0100747 -40.2671444621 50.7961588305 33.7607630363 9.51829 -0.149857 0.655204 9.51851 -0.191245 0.644341 9.51595 -0.220476 0.634934 9.51541 -0.117435 0.661784 -16.5967 -10.1576 -3.06197 -16.9059 -17.7677 -6.57645 -0.0 0.0 -0.0 1.47628 18.7224 4.40793 -25.3598 -16.1429 66.8545 0.181685 -5.14297 0.00815965 -2.70499 -0.103127 0.329975 1.08417 -9.52765 3.27374 -0.0 0.0 -0.0 6.28567 -15.9637 -11.8885 -16.6315 31.602 -56.3928 1.26048 31.9796 -0.361208 -7.23157 0.310215 -0.870259 1.23869 28.7449 4.2156 0.0 0.0 0.0 63.3903 -13.7482 4.28406 -34.1168 -0.135502 5.1575 -7.10065 18.7816 1.07078 13.6112 -0.0 -0.0 -0.0 0.0 -0.0 24.9336 -22.5462 -4.03236 -14.4881 -0.320566 -2.19436 40.1442 2.78624 4.91457 6.11392 -0.0 -0.0 0.0 0.0 0.0 
1029.26432541 720.688 -1817.12094032 -42.1909093772 52.9495380315 37.8339645943 9.54072 0.243783 0.342331 9.54076 0.221506 0.35715 9.54203 0.20514 0.366794 9.54194 0.260494 0.329793 -17.5255 -10.4686 -1.06632 -17.9783 -19.5359 -5.02302 -0.0 0.0 -0.0 1.6034 18.2481 4.56642 -25.1758 -16.2325 65.566 0.200575 -5.67437 0.00994022 -3.8295 -0.15057 0.465674 1.18755 -4.91563 5.93079 -0.0 0.0 -0.0 6.38675 -19.6166 -11.8437 -13.5368 30.7713 -57.2154 1.25262 31.8188 -0.357055 -11.5779 0.548696 -1.37233 0.177845 28.5393 10.9105 0.0 0.0 0.0 61.6335 -14.1468 3.15199 -22.4765 0.258006 3.41748 -8.29073 20.038 1.25773 5.82692 -0.0 -0.0 -0.0 0.0 -0.0 20.4617 -23.5125 -7.07775 -12.4488 -0.309178 -1.88169 36.6234 6.63496 4.65453 6.83052 -0.0 -0.0 0.0 0.0 0.0 
1025.23673273 720.688 -1813.03478557 -42.8040726837 53.4501746548 38.5997087031 9.54072 0.243783 0.342331 9.54076 0.221506 0.35715 9.54203 0.20514 0.366794 9.54194 0.260494 0.329793 -17.5255 -10.4686 -1.06632 -17.9783 -19.5359 -5.02302 -0.0 0.0 -0.0 1.6034 18.2481 4.56642 -25.1758 -16.2325 65.566 0.200575 -5.67437 0.00994022 -3.8295 -0.15057 0.465674 1.18755 -4.91563 5.93079 -0.0 0.0 -0.0 6.38675 -19.6166 -11.8437 -13.5368 30.7713 -57.2154 1.25262 31.8188 -0.357055 -11.5779 0.548696 -1.37233 0.177845 28.5393 10.9105 0.0 0.0 0.0 61.6335 -14.1468 3.15199 -22.4765 0.258006 3.41748 -8.29073 20.038 1.25773 5.82692 -0.0 -0.0 -0.0 0.0 -0.0 20.4617 -23.5125 -7.07775 -12.4488 -0.309178 -1.88169 36.6234 6.63496 4.65453 6.83052 -0.0 -0.0 0.0 0.0 0.0 
1006.15444441 716.221 -1828.7652848 -43.6576626487 54.7135425471 40.7399130217 9.50636 0.374178 0.191454 9.50631 0.361237 0.214876 9.50774 0.35102 0.23119 9.50787 0.383127 0.172851 -17.9263 -10.4313 1.1383 -18.4615 -20.6729 -3.0484 -0.0 0.0 -0.0 1.41252 18.3499 4.28424 -25.9787 -15.9539 64.2594 0.207233 -5.86143 0.0106094 -4.81821 -0.19448 0.584208 1.37409 -2.28632 8.28715 -0.0 0.0 -0.0 6.36117 -23.0165 -11.5678 -11.4873 30.014 -57.6185 1.29747 32.7285 -0.381 -15.6405 0.805539 -1.82426 -0.808051 28.8095 17.4456 0.0 0.0 0.0 60.3654 -14.8175 2.41361 -14.7962 0.321319 2.24163 -8.21614 20.6397 1.24898 0.722385 -0.0 -0.0 -0.0 0.0 -0.0 16.2968 -25.3858 -9.68839 -9.20595 -0.268178 -1.38586 35.0478 10.9384 4.59087 6.92024 -0.0 -0.0 0.0 0.0 0.0 
999.355864302 716.221 -1821.59105424 -44.7708463602 55.5113500193 42.0969434807 9.50636 0.374178 0.191454 9.50631 0.361237 0.214876 9.50774 0.35102 0.23119 9.50787 0.383127 0.172851 -17.9263 -10.4313 1.1383 -18.4615 -20.6729 -3.0484 -0.0 0.0 -0.0 1.41252 18.3499 4.28424 -25.9787 -15.9539 64.2594 0.207233 -5.86143 0.0106094 -4.81821 -0.19448 0.584208 1.37409 -2.28632 8.28715 -0.0 0.0 -0.0 6.36117 -23.0165 -11.5678 -11.4873 30.014 -57.6185 1.29747 32.7285 -0.381 -15.6405 0.805539 -1.82426 -0.808051 28.8095 17.4456 0.0 0.0 0.0 60.3654 -14.8175 2.41361 -14.7962 0.321319 2.24163 -8.21614 20.6397 1.24898 0.722385 -0.0 -0.0 -0.0 0.0 -0.0 16.2968 -25.3858 -9.68839 -9.20595 -0.268178 -1.38586 35.0478 10.9384 4.59087 6.92024 -0.0 -0.0 0.0 0.0 0.0 
995.531605822 716.221 -1817.43005953 -45.4326136877 55.9605733548 42.8976662882 9.50636 0.374178 0.191454 9.50631 0.361237 0.214876 9.50774 0.35102 0.23119 9.50787 0.383127 0.172851 -17.9263 -10.4313 1.1383 -18.4615 -20.6729 -3.0484 -0.0 0.0 -0.0 1.41252 18.3499 4.28424 -25.9787 -15.9539 64.2594 0.207233 -5.86143 0.0106094 -4.81821 -0.19448 0.584208 1.37409 -2.28632 8.28715 -0.0 0.0 -0.0 6.36117 -23.0165 -11.5678 -11.4873 30.014 -57.6185 1.29747 32.7285 -0.381 -15.6405 0.805539 -1.82426 -0.808051 28.8095 17.4456 0.0 0.0 0.0 60.3654 -14.8175 2.41361 -14.7962 0.321319 2.24163 -8.21614 20.6397 1.24898 0.722385 -0.0 -0.0 -0.0 0.0 -0.0 16.2968 -25.3858 -9.68839 -9.20595 -0.268178 -1.38586 35.0478 10.9384 4.59087 6.92024 -0.0 -0.0 0.0 0.0 0.0 
979.219375103 714.138 -1831.96191321 -45.7892264307 56.1668109743 43.8105160439 9.47012 0.447536 0.0767351 9.47002 0.441746 0.105058 9.47103 0.436392 0.125455 9.47129 0.450729 0.0549593 -18.488 -10.7254 1.46663 -19.0947 -21.4156 -2.9831 -0.0 0.0 -0.0 2.26947 18.5812 5.5961 -27.1864 -14.3295 62.9034 0.191696 -5.4247 0.00908161 -6.10544 -0.254708 0.73738 1.4381 -0.328679 9.51923 -0.0 0.0 -0.0 6.42249 -23.8252 -11.5918 -11.1615 29.296 -57.9862 1.27425 32.2597 -0.368526 -18.1918 0.983025 -2.09844 -1.5538 28.5654 22.3454 0.0 0.0 0.0 60.6023 -15.0782 2.28501 -9.61094 0.274831 1.44765 -5.99235 21.5578 0.911014 -2.9988 0.0 0.0 -0.0 0.0 -0.0 12.1161 -26.1988 -11.6306 -4.63032 -0.162759 -0.691784 35.1097 14.5391 4.69275 5.48482 -0.0 -0.0 0.0 0.0 0.0 
973.045029333 714.138 -1825.0424205 -46.8842055461 56.8581946863 45.123389431 9.47012 0.447536 0.0767351 9.47002 0.441746 0.105058 9.47103 0.436392 0.125455 9.47129 0.450729 0.0549593 -18.488 -10.7254 1.46663 -19.0947 -21.4156 -2.9831 -0.0 0.0 -0.0 2.26947 18.5812 5.5961 -27.1864 -14.3295 62.9034 0.191696 -5.4247 0.00908161 -6.10544 -0.254708 0.73738 1.4381 -0.328679 9.51923 -0.0 0.0 -0.0 6.42249 -23.8252 -11.5918 -11.1615 29.296 -57.9862 1.27425 32.2597 -0.368526 -18.1918 0.983025 -2.09844 -1.5538 28.5654 22.3454 0.0 0.0 0.0 60.6023 -15.0782 2.28501 -9.61094 0.274831 1.44765 -5.99235 21.5578 0.911014 -2.9988 0.0 0.0 -0.0 0.0 -0.0 12.1161 -26.1988 -11.6306 -4.63032 -0.162759 -0.691784 35.1097 14.5391 4.69275 5.48482 -0.0 -0.0 0.0 0.0 0.0 
967.95954265 714.138 -1819.15545147 -47.8409800892 57.4271865256 46.2623486521 9.47012 0.447536 0.0767351 9.47002 0.441746 0.105058 9.47103 0.436392 0.125455 9.47129 0.450729 0.0549593 -18.488 -10.7254 1.46663 -19.0947 -21.4156 -2.9831 -0.0 0.0 -0.0 2.26947 18.5812 5.5961 -27.1864 -14.3295 62.9034 0.191696 -5.4247 0.00908161 -6.10544 -0.254708 0.73738 1.4381 -0.328679 9.51923 -0.0 0.0 -0.0 6.42249 -23.8252 -11.5918 -11.1615 29.296 -57.9862 1.27425 32.2597 -0.368526 -18.1918 0.983025 -2.09844 -1.5538 28.5654 22.3454 0.0 0.0 0.0 60.6023 -15.0782 2.28501 -9.61094 0.274831 1.44765 -5.99235 21.5578 0.911014 -2.9988 0.0 0.0 -0.0 0.0 -0.0 12.1161 -26.1988 -11.6306 -4.63032 -0.162759 -0.691784 35.1097 14.5391 4.69275 5.48482 -0.0 -0.0 0.0 0.0 0.0 
